<svg version="1" xmlns="http://www.w3.org/2000/svg" width="346.667" height="346.667" viewBox="0 0 260.000000 260.000000"><path d="M127.6 29.8c-.2.1-1.6.5-3.2.8-1.6.2-5.8 1.2-9.4 2-3.5.9-7.6 1.8-9 2-1.4.2-3.4.5-4.5.8C88.4 38.5 76 41.2 74 41.5c-1.4.2-3.2.6-4 .9-.8.3-2.7.8-4.2 1.1-6.8 1.3-8.4 1.6-10 2.1-.9.3-2.5.7-3.6.9-1.1.2-6.4 1.3-11.8 2.5-5.5 1.2-11 2.4-12.4 2.6-1.4.3-4.3 1-6.5 1.5-4.1 1-5.8 1.4-11 2.5-3.5.8-7.6-.3 38 10.1 16 3.6 32.8 7.4 37.5 8.5 4.7 1.1 9.6 2.1 11 2.4 1.4.2 9.7 2.1 18.6 4.2 11.4 2.7 17 3.6 19.5 3.1 1.9-.4 4.8-1 6.4-1.2 1.7-.3 5.5-1.1 8.5-1.7 3-.6 6.9-1.4 8.5-1.6 1.7-.3 8.4-1.6 15-2.9 10.7-2.1 19.1-3.7 26.5-5.1 1.4-.2 3.6-.7 5-1 1.4-.3 3.6-.8 5-1 1.4-.2 3.6-.7 5-1 1.4-.3 3.6-.8 5-1 1.4-.3 5.9-1.1 10-1.9 10.8-2.2 12-2.4 16-3 1.9-.3 4.9-.9 6.5-1.4l3-.8-4-1.1c-4.8-1.3-44.4-11.2-46.5-11.7-.8-.2-3.5-.8-6-1.5s-5.2-1.4-6-1.6c-.8-.1-9.4-2.3-19-4.9-9.6-2.5-18.4-4.7-19.5-4.9-1.1-.2-6.5-1.5-12-3-8.8-2.2-13.9-2.9-14.9-1.8zM240.5 73.6c-4.9 1.3-9.9 2.6-11 2.8-3.4.7-16 3.9-16.3 4.1-.3.3-2.7 10.8-5.8 26.5-2.9 14.6-3 14.7-6.9 15.2-1.9.2-3.9.2-4.4-.1-.5-.4-.9-9-.9-19.4.1-10.3-.1-18.9-.3-19.2-.2-.2-3.6.2-7.4 1-3.9.7-8.3 1.5-10 1.8-20.8 3.5-34 5.9-34.6 6.2-.3.3-.6 30.7-.5 67.7.1 59.3.3 67.3 1.6 67 .8-.2 2.2-.5 3-.7 1.9-.4 21.1-5.9 27-7.8 2.5-.7 4.8-1.4 5.3-1.5 1.6-.4 2.5-.6 7.7-2.1 2.5-.7 5.3-1.4 6.3-1.7 1.6-.5 1.7-2.5 1.7-23.5V167l2.7-1.1c6.8-2.6 6.3-3.4 11.3 19.3 2.6 12.3 4.9 20.8 5.6 20.8.6 0 6.5-1.6 13-3.6 6.6-1.9 15.5-4.6 20-5.9l8.1-2.5v-8.7l.1-8.8-11.5-18.4-11.5-18.5 9.5-28.5c8.8-26.2 10.1-31.2 9.8-37.9-.1-2.7-.2-2.6-11.6.4zM37.5 76.2c-.8 2.4-12 45.3-13 49.8-.2.8-.4 1.5-.5 1.5-.1 0-.3.7-.5 1.6-.3 1.5-9.1 34.6-10.1 38.1-.5 1.7-2.6 1.8-10.1.4L0 167V196.7l6.1 1.7c3.3 1 6.8 1.9 7.7 2.1.9.2 10.7 2.7 21.7 5.5 11 2.9 20.7 5.4 21.5 5.6.8.2 9.4 2.4 19 4.9 45.4 11.9 56.3 14.6 56.7 14.1.6-.5.5-38.7-.1-39.3-.5-.5-2.1-.8-8.8-1.8l-4.7-.7v-48c0-26.4-.1-48.1-.3-48.3-.2-.2-12-2.8-22.8-4.9-16.3-3.2-56.4-11.8-57.1-12.2-.5-.3-1.1.1-1.4.8zm27.9 30.9c.7.6 1.2 54.8.7 72.6l-.1 3.1-7.2-1.9c-4-1-8.6-2.1-10.3-2.4-7.2-1.3-7.3-1.5-5.1-11 4.4-18.6 5.7-24.3 6-26 .3-1.1 2.1-9 4-17.5 2-8.5 3.8-16.5 4.1-17.7.5-2 .8-2.1 3.8-1.1 1.7.6 3.6 1.4 4.1 1.9z"/></svg>